<svg width="30" height="30" viewBox="0 0 30 30" fill="none" xmlns="http://www.w3.org/2000/svg">
<path d="M5.625 12.1875C5.37636 12.1875 5.1379 12.2863 4.96209 12.4621C4.78627 12.6379 4.6875 12.8764 4.6875 13.125V18.75C4.6875 19.2675 5.1075 19.6875 5.625 19.6875H14.0625C14.3111 19.6875 14.5496 19.5887 14.7254 19.4129C14.9012 19.2371 15 18.9986 15 18.75V13.125C15 12.8764 14.9012 12.6379 14.7254 12.4621C14.5496 12.2863 14.3111 12.1875 14.0625 12.1875H5.625Z" fill="white"/>
<path fill-rule="evenodd" clip-rule="evenodd" d="M4.6875 8.4375C3.69294 8.4375 2.73911 8.83259 2.03585 9.53585C1.33259 10.2391 0.9375 11.1929 0.9375 12.1875V19.6875C0.9375 20.6821 1.33259 21.6359 2.03585 22.3392C2.73911 23.0424 3.69294 23.4375 4.6875 23.4375H23.4375C24.4321 23.4375 25.3859 23.0424 26.0892 22.3392C26.7924 21.6359 27.1875 20.6821 27.1875 19.6875V19.6413C28.2575 19.4238 29.0625 18.4787 29.0625 17.3438V14.5312C29.0625 13.3975 28.2575 12.4513 27.1875 12.235V12.1875C27.1875 11.1929 26.7924 10.2391 26.0892 9.53585C25.3859 8.83259 24.4321 8.4375 23.4375 8.4375H4.6875ZM23.4375 10.3125C23.9348 10.3125 24.4117 10.51 24.7633 10.8617C25.115 11.2133 25.3125 11.6902 25.3125 12.1875V19.6875C25.3125 20.1848 25.115 20.6617 24.7633 21.0133C24.4117 21.365 23.9348 21.5625 23.4375 21.5625H4.6875C4.19022 21.5625 3.71331 21.365 3.36167 21.0133C3.01004 20.6617 2.8125 20.1848 2.8125 19.6875V12.1875C2.8125 11.6902 3.01004 11.2133 3.36167 10.8617C3.71331 10.51 4.19022 10.3125 4.6875 10.3125H23.4375Z" fill="#D6D6D6"/>
</svg>
