<svg width="30" height="30" viewBox="0 0 30 30" fill="none" xmlns="http://www.w3.org/2000/svg">
<path fill-rule="evenodd" clip-rule="evenodd" d="M18.75 10C18.75 9.30964 19.3096 8.75 20 8.75H25C25.6904 8.75 26.25 9.30964 26.25 10C26.25 10.6904 25.6904 11.25 25 11.25H21.25V15C21.25 15.6904 20.6904 16.25 20 16.25H16.25V20C16.25 20.6904 15.6904 21.25 15 21.25H11.25V25C11.25 25.6904 10.6904 26.25 10 26.25H5C4.30964 26.25 3.75 25.6904 3.75 25C3.75 24.3096 4.30964 23.75 5 23.75H8.75V20C8.75 19.3096 9.30964 18.75 10 18.75H13.75V15C13.75 14.3096 14.3096 13.75 15 13.75H18.75V10Z" fill="#8E8E8E"/>
<path fill-rule="evenodd" clip-rule="evenodd" d="M7.5 5C7.5 4.30964 8.05964 3.75 8.75 3.75H13.75C14.4404 3.75 15 4.30964 15 5V10C15 10.6904 14.4404 11.25 13.75 11.25C13.0596 11.25 12.5 10.6904 12.5 10V8.01777L5.88388 14.6339C5.39573 15.122 4.60427 15.122 4.11612 14.6339C3.62796 14.1457 3.62796 13.3543 4.11612 12.8661L10.7322 6.25H8.75C8.05964 6.25 7.5 5.69036 7.5 5Z" fill="#8E8E8E"/>
</svg>
