<svg width="30" height="30" viewBox="0 0 30 30" fill="none" xmlns="http://www.w3.org/2000/svg">
<path d="M24.9609 15.5859C24.3499 15.5866 23.7521 15.764 23.2396 16.0967C22.7271 16.4293 22.3217 16.9031 22.0723 17.4609H20.6168L19.0348 12.7148C18.9473 12.4542 18.7788 12.2284 18.5538 12.0703C18.3289 11.9122 18.0593 11.8302 17.7845 11.8362C17.5096 11.8422 17.2439 11.936 17.0261 12.1038C16.8083 12.2715 16.6498 12.5045 16.5738 12.7687L14.3941 20.3977L11.5816 3.88945C11.5317 3.59847 11.3834 3.33344 11.1615 3.13867C10.9397 2.9439 10.6577 2.83119 10.3627 2.81939C10.0677 2.80759 9.77755 2.89741 9.54083 3.07384C9.3041 3.25026 9.13511 3.5026 9.06211 3.78867L5.55586 17.4609H1.875V20.0391H6.5625C6.84992 20.039 7.12908 19.943 7.35563 19.7661C7.58218 19.5892 7.74313 19.3417 7.81289 19.0629L10.06 10.0781L12.791 26.1105C12.8387 26.3996 12.9835 26.6637 13.2014 26.8595C13.4193 27.0552 13.6974 27.1709 13.9898 27.1875H14.0625C14.3429 27.1873 14.6156 27.0957 14.8393 26.9265C15.0629 26.7573 15.2253 26.5198 15.3018 26.25L17.9074 17.4832L18.4646 19.1602C18.5506 19.4163 18.715 19.639 18.9344 19.7967C19.1538 19.9545 19.4173 20.0392 19.6875 20.0391H22.0723C22.3042 20.5591 22.6722 21.0068 23.1375 21.3351C23.6027 21.6635 24.1479 21.8601 24.7155 21.9045C25.2832 21.9488 25.8523 21.8391 26.3629 21.587C26.8734 21.3348 27.3064 20.9496 27.6163 20.4719C27.9262 19.9942 28.1014 19.4418 28.1235 18.8728C28.1456 18.3038 28.0138 17.7394 27.7419 17.2391C27.47 16.7388 27.0681 16.3212 26.5787 16.0302C26.0892 15.7393 25.5303 15.5858 24.9609 15.5859Z" fill="#E79356"/>
</svg>
