<svg width="30" height="30" viewBox="0 0 30 30" fill="none" xmlns="http://www.w3.org/2000/svg">
<path opacity="0.6" d="M7.64872 20.9948C6.89696 21.105 5.65946 21.3101 4.83622 20.3761C4.01298 19.4421 3.30106 17.1868 2.98817 15.1712C2.52645 12.2005 2.98466 9.6968 4.27723 8.1218C5.03895 7.19426 6.03856 6.65695 7.16825 6.5714C8.13563 6.49699 9.58114 6.87551 10.9768 9.10207C11.8511 10.4972 12.5161 12.3505 12.8015 14.1862C13.146 16.4023 13.4817 18.7671 12.3069 19.615C11.6442 20.0937 11.1684 20.2595 10.044 20.5273C9.11942 20.747 8.40106 20.8841 7.64872 20.9948ZM6.31161 22.9009L12.6919 21.5849C13.2309 21.4736 13.6634 21.77 13.8638 22.6583C14.5212 25.5739 13.579 29.0626 10.6282 29.0626C7.83387 29.0626 5.97176 25.8775 5.66766 24.1653C5.5288 23.389 5.72684 23.021 6.31161 22.9009ZM19.9563 14.9028C18.8319 14.6362 18.3561 14.4693 17.6934 13.9905C16.5186 13.1427 16.8544 10.7778 17.1989 8.56183C17.4843 6.72609 18.1493 4.87043 19.0235 3.47765C20.4181 1.25109 21.8636 0.872576 22.8321 0.946991C23.9606 1.03312 24.9608 1.56926 25.7225 2.4968C27.0163 4.0718 27.4745 6.57551 27.0116 9.54621C26.6981 11.5618 25.9886 13.8095 25.1606 14.7511C24.3327 15.6927 23.1022 15.48 22.3481 15.3698C21.594 15.2597 20.8804 15.122 19.9563 14.9028ZM23.6882 17.2759L17.3079 15.9599C16.7688 15.8486 16.3364 16.145 16.136 17.0333C15.4792 19.9489 16.4214 23.4376 19.3722 23.4376C22.1665 23.4376 24.0286 20.2525 24.3327 18.5403C24.471 17.764 24.2729 17.396 23.6882 17.2759Z" fill="#00E39F"/>
</svg>
